PathFileType	4	(X/Y/Z)	pose_F01_0-96.trc
DataRate	CameraRate	NumFrames	NumMarkers	Units	OrigDataRate	OrigDataStartFrame	OrigNumFrames
30	30	11	21	m	30	48	96
Frame#	Time	CHip			RHip			RKnee			RAnkle			RBigToe			RSmallToe			RHeel			LHip			LKnee			LAnkle			LBigToe			LSmallToe			LHeel			Neck			Nose			RShoulder			RElbow			RWrist			LShoulder			LElbow			LWrist			
		X1	Y1	Z1	X2	Y2	Z2	X3	Y3	Z3	X4	Y4	Z4	X5	Y5	Z5	X6	Y6	Z6	X7	Y7	Z7	X8	Y8	Z8	X9	Y9	Z9	X10	Y10	Z10	X11	Y11	Z11	X12	Y12	Z12	X13	Y13	Z13	X14	Y14	Z14	X15	Y15	Z15	X16	Y16	Z16	X17	Y17	Z17	X18	Y18	Z18	X19	Y19	Z19	X20	Y20	Z20	X21	Y21	Z21	
48	1.6	-0.3427229690970569	1.8273182165808561	-0.49372751516832153	-0.358484330350686	1.8208504082067092	-0.4359316300136655	-0.36895100057252944	1.6978999951430234	-0.4392567814317763	-0.3785098642547362	1.5747110023493862	-0.441050550528149	-0.23320361461876582	1.5258714855737603	-0.4397652411303089	-0.35231244653696675	1.547916072971737	-0.4102590092449319	-0.38546323006579153	1.5624056037435488	-0.4509915012230233	-0.3321252332779832	1.8311118122119572	-0.5447173691503351	-0.3183581491643169	1.7081994993319565	-0.5470286514452943													-0.34438001090074877	1.9782452911508421	-0.5093727115424894	-0.3128693250877473	2.047088080277334	-0.4987917706769513	-0.3591141433794599	1.9737832375216062	-0.4272047519992572	-0.37543065880950577	1.9051061092840411	-0.37371078527737295	-0.30595623767810076	1.9100964406223266	-0.40724073460406013	-0.3273671026832848	1.9823634151880967	-0.5909502108517851	-1.3243552965106373	1.8530327255784076	0.43932760585105923	-0.29270856366915143	1.9717553689606337	-0.5832659271656484
49	1.6333333333333333	-0.3409694914236228	1.8242510187921799	-0.4953314385920321	-0.3526345230447356	1.8177662869794284	-0.4419137191602825	-0.3665140561168432	1.6932239136142275	-0.4415758734568445	-0.3777306740589593	1.574049889648076	-0.4418013558798536	-0.23320361461876582	1.5258714855737603	-0.4397652411303089	-0.35032711723781607	1.5476592237052647	-0.4077193205874111	-0.38546323006579153	1.5624056037435488	-0.4509915012230233	-0.3311483271060079	1.8287364344225168	-0.5495572639371904	-0.31471804870554465	1.7040431508390717	-0.5588862884863829													-0.33832583206542205	1.978785195677971	-0.5157343898074841	-0.30682938361342	2.048417302185007	-0.5050792969413093	-0.3543813326656205	1.9745203082593068	-0.43659473668685916	-0.3618110692078058	1.9068780453554093	-0.36624385290670725	-1.6956654162054376	1.8781520060034667	1.0494088173074603	-0.32114604779979744	1.9818814186607703	-0.5973816732360716	-1.3096409846525796	1.8512792337638129	0.4181158086358116	-0.28712807307447336	1.9604279839401546	-0.5640091954451346
50	1.6666666666666667	-0.3367400713032002	1.8257563108317567	-0.49986186661363513	-0.3466919338485989	1.82249827806161	-0.44874180351108656	-0.3606781877232273	1.6950843827502535	-0.4479587116379046	-0.3769514838631824	1.5733887769467658	-0.4425521612315582	-0.23320361461876582	1.5258714855737603	-0.4397652411303089	-0.3483417879386653	1.5474023744387924	-0.4051796319298903	-0.38546323006579153	1.5624056037435488	-0.4509915012230233	-0.3205510436548135	1.830729902157926	-0.5605984683999407	-0.3069757563961348	1.7013404479235308	-0.5711928665486209													-0.33526363351572425	1.9794230747262302	-0.5229358194795589	-0.3058266810382384	2.047537670613367	-0.510475680756271	-0.35047409519501677	1.9750121832473613	-0.4408140338673041	-0.34678438218711594	1.9122341189405394	-0.3698835785915435	-0.31366013778535073	1.955705231501379	-0.45315717652920956	-0.31700668016311806	1.982134383026491	-0.6017227491968926	-1.3048265989898915	1.849113739658859	0.4128286216098818	-0.2837806674927875	1.9632506066017335	-0.571848296105987
51	1.7	-0.328648702646276	1.8224912728265465	-0.508139341265388	-0.34488525964322375	1.8181076857097076	-0.45031749230712775	-0.3579904965049558	1.6965227623387562	-0.45525760339429805	-0.3761722936674055	1.5727276642454555	-0.4433029665832628	-0.23320361461876582	1.5258714855737603	-0.4397652411303089	-0.3496958243357814	1.5483578276939272	-0.40852273540952827	-0.38546323006579153	1.5624056037435488	-0.4509915012230233	-0.3166695906870566	1.8270406580546656	-0.5644292517291024	-0.3048540814884541	1.7019854382119715	-0.5733867242723673													-0.3273733338671135	1.9782592014142035	-0.5316129840476821	-0.29905371629609556	2.046431336544509	-0.5222371901274113	-0.34379132561232906	1.9766613967344115	-0.45278183144520473	-0.33287022303430586	1.9132708524610653	-0.3761480656047431	-0.29913476700053804	1.957181781055948	-0.46752277321497426	-0.3095229073253295	1.980731854607111	-0.6130909883716816	-1.2897730521225081	1.8474244449746802	0.3912714712586101	-0.2716881700961997	1.9596810818132069	-0.5761079738786689
52	1.7333333333333334	-0.32336824257057856	1.822074103558107	-0.5176765331233363	-0.3326279605356868	1.8179876274985707	-0.46327108725006855	-0.3559149939105174	1.6934717188149726	-0.45720814069719085	-0.3743882491715287	1.5712269633106906	-0.4448745507718932	-0.23320361461876582	1.5258714855737603	-0.4397652411303089	-0.3498481060227635	1.5465137802334665	-0.4080352998771593	-0.38546323006579153	1.5624056037435488	-0.4509915012230233	-0.30664450382493535	1.8252054730232505	-0.5785689218798713	-0.2917575679020286	1.696365661662807	-0.5864163322613078													-0.32012341322917925	1.9777702594697963	-0.5428869759905768	-0.292030379844205	2.045823929818962	-0.5340656807294422	-0.3358840139272543	1.9731534338973151	-0.4604696341785519	-0.32127012935867333	1.91454825872428	-0.3887325603468266	-0.28725239130341335	1.9508812488054934	-0.4706531564975638	-0.30417630054029365	1.9802164263442092	-0.6228573128688097	-1.2753629266021196	1.844593787038161	0.3712434004592493	-0.26927608387725954	1.9576178920504828	-0.5862386160193224
53	1.7666666666666666	-0.31213783086228614	1.8195527224294645	-0.5335707330822482	-0.32778862175820295	1.816799064873938	-0.4727317204170489	-0.34531655850928983	1.6926415527823917	-0.46826709693373025	-0.3753964863326	1.569818384002426	-0.4484273726936596	-0.23320361461876582	1.5258714855737603	-0.4397652411303089	-0.3475335479669442	1.5442343434744032	-0.4103954363699753	-0.38546323006579153	1.5624056037435488	-0.4509915012230233	-0.30162997021210797	1.8220305987899217	-0.5879303046359474	-0.2877374481015635	1.6978143820703282	-0.590660754012696													-0.30785327653382644	1.9765474764060569	-0.5555306181836511	-0.2820600161004747	2.044043898061019	-0.5532183826131556	-0.32415511269544556	1.97113648720397	-0.47281151085402523	-0.3098491977779846	1.912129885267089	-0.401193350109627	-0.27534884324547315	1.9504888058153858	-0.4838445480687484	-0.2924658429796432	1.9805338073610783	-0.6388882551310116	-1.2568597261857382	1.8450892097540583	0.34688457203630935	-0.25969279696971465	1.9583141982813623	-0.6004967136271112
54	1.8	-0.2992743715460309	1.8184388617550624	-0.5467948709119512	-0.3133265530324597	1.8170211012486146	-0.48790531434205897	-0.33810227258527853	1.691227326482551	-0.4802584672851997	-0.3752794260643071	1.572543248892575	-0.44874943692716596	-0.23320361461876582	1.5258714855737603	-0.4397652411303089	-0.34897391999469596	1.5444760356311615	-0.4089249064319637	-0.38546323006579153	1.5624056037435488	-0.4509915012230233	-0.2873298003461561	1.8231074275324695	-0.6066849804816863	-0.28442514765470217	1.6902889119877629	-0.6022933513858317													-0.3046015398284601	1.9772381784175452	-0.5714584482022561	-0.2759345687984948	2.0443024285592277	-0.5599995060945571	-0.3204023013622573	1.9739972895730813	-0.4943873014906143	-0.304304607613623	1.9136534547271027	-0.41630976839575695	-0.26483742131462734	1.9500839802355128	-0.4855208224352525	-0.28764958336091734	1.9813359692808865	-0.6514227742730663	-1.2332674115524684	1.841473465703763	0.31672381611316136	-0.2519325989697358	1.9608300937172793	-0.6214168290618108
55	1.8333333333333333	-0.29290766863914747	1.8269224044627939	-0.5628015370665593	-0.30044961620203015	1.823436042719111	-0.5069664665761258	-0.32499766648740686	1.6972435423057046	-0.49037150600404433	-0.36903066906276305	1.5740338816092405	-0.45545442095646266	-0.23320361461876582	1.5258714855737603	-0.4397652411303089	-0.3381090080532702	1.5442979207488676	-0.4212760024298534	-0.38546323006579153	1.5624056037435488	-0.4509915012230233	-0.2752302382557524	1.8269622221252877	-0.6238583863212115	-0.27488353638662255	1.695867417830046	-0.6168801354348834													-0.29489598157880503	1.9825839663988722	-0.5945036304857216	-0.263499559281647	2.0474223745260534	-0.5816436599741999	-0.311449378994253	1.9775582530734843	-0.5092678312673159	-0.2937338763205721	1.915279411108496	-0.4412317972658154	-0.2538222580295242	1.957042892872817	-0.5202320301455824	-0.2773774096142652	1.9847489115183898	-0.6741838594959801	-1.2009504143885763	1.8399205267536525	0.2727700828785929	-0.24290513943673256	1.9636211075994325	-0.6387250914515212
56	1.8666666666666667	-0.2804916284630987	1.8265488006189843	-0.5844834437548954	-0.2931253860107969	1.8230964738165756	-0.5191038912602932	-0.31181419244123904	1.6973687260949755	-0.4995798997715003	-0.3572202815258522	1.5735533067606253	-0.46771925982930596	-0.23320361461876582	1.5258714855737603	-0.4397652411303089	-0.3272440961118444	1.5441198058665737	-0.4336270984277431	-0.38546323006579153	1.5624056037435488	-0.4509915012230233	-0.271878250728638	1.8280181343283646	-0.6400086504622253	-0.2740007589013308	1.6951474915555795	-0.6218668258847724													-0.2897932975766722	1.982815213797885	-0.6047108266256663	-0.2620923551294595	2.049246176727043	-0.5958405985719044	-0.3045016830595195	1.981590553116641	-0.5218795822667244	-0.2873031241159222	1.9146656243559976	-0.453509575956612	-1.6470226527380396	1.8781415362506038	0.9759093450678128	-0.27278165425568474	1.9839133539781453	-0.6870547410196933	-1.1760651563755842	1.8422170417553707	0.23768638140334566	-0.23752590506250496	1.96200714591778	-0.6400545004582089
57	1.9	-0.27815441361560134	1.8260070158453852	-0.5953244510231587	-0.2869636694545822	1.8246349566802738	-0.5344101012013165	-0.29837303835119855	1.6981532012687184	-0.5006269421560761	-0.34540989398894134	1.57307273191201	-0.47998409870214925	-0.23320361461876582	1.5258714855737603	-0.4397652411303089	-0.31637918417041866	1.5439416909842798	-0.4459781944256328	-0.38546323006579153	1.5624056037435488	-0.4509915012230233	-0.26193996013338555	1.8265222437190722	-0.6543093615157394	-0.2704832725294905	1.6942565515249741	-0.6295415825411075													-0.2820185779819341	1.9841045650144398	-0.6250279589942456	-0.2504459029699867	2.0533542066420822	-0.6123475891553941	-0.2983671512167685	1.9825994824570434	-0.5452063332139971	-0.28040789653059484	1.917979070583283	-0.46592629736762625	-0.2394461884973733	1.9637658846546906	-0.5544881547232244	-0.266060838434272	1.986254996376509	-0.7026858098568278	-1.1480531539900658	1.8434219289459843	0.19895692816458566	-0.2234238441088398	1.9608531961037428	-0.6583661887387564
58	1.9333333333333333	-0.2705932717834479	1.8266852864966323	-0.6075781613979406	-0.28387511754481165	1.8254329025578482	-0.5421412366777476	-0.28143937165025684	1.699115346673256	-0.5184915357798056	-0.3335995064520305	1.5725921570633947	-0.49224893757499255	-0.23320361461876582	1.5258714855737603	-0.4397652411303089	-0.3055142722289929	1.543763576101986	-0.45832929042352255	-0.38546323006579153	1.5624056037435488	-0.4509915012230233	-0.26037163420043147	1.8287583317759144	-0.6682574696301412	-0.2664544532350016	1.6926110457395993	-0.6377126795086636													-0.27879312458677813	1.9855655000690713	-0.632988344618303	-0.2492583483910671	2.0524366253887316	-0.6178629970264126	-0.2941928572095346	1.9850382999624903	-0.5500099446492768	-0.2824315002445452	1.9159872292481197	-0.471892573012946	-0.2412109767468695	1.9482185547966548	-0.547045807527556	-0.25910118418424744	1.9869914099103783	-0.7176759626123275	-0.22998731370268216	1.922981654491417	-0.752421161711932	-1.3404063812404063	1.8690135564699872	0.49656769010966817
